<svg width="80" height="97" viewBox="0 0 80 97" fill="none" xmlns="http://www.w3.org/2000/svg">
<path fill-rule="evenodd" clip-rule="evenodd" d="M73.3803 61.5134C73.3767 61.4996 73.3734 61.453 73.3685 61.3771C73.342 60.9608 73.2711 59.661 72.8821 58.028C72.6816 57.1864 72.3966 56.2563 71.9896 55.313C71.2012 53.4854 69.9549 51.6084 67.9782 50.2296C65.9627 48.7473 63.1952 47.7296 59.3951 47.7296C45.3494 47.7296 45.3494 61.5134 45.3494 61.5134V66.4443H43.5112C41.4373 66.4511 39.7203 68.1309 39.7203 70.2171V86.8951V92.1986V92.7046C39.7203 94.7704 41.4373 96.4502 43.5112 96.4502H75.2858C77.3664 96.4502 79.0295 94.7704 79.0295 92.7046V70.2171C79.0295 68.1241 77.3664 66.4443 75.2858 66.4443H73.3803V61.5134ZM59.3951 53.6224C51.3421 53.6224 51.3959 59.8336 51.3421 61.5134V66.4443H67.3943V61.5134C67.3472 59.8945 67.3943 53.6224 59.3951 53.6224Z" fill="#0F23B7"/>
<path fill-rule="evenodd" clip-rule="evenodd" d="M68.4803 77.9097L59.1203 87.2697C58.6403 87.7497 57.8803 87.7497 57.4003 87.2697L52.9603 82.8297C52.4803 82.3497 52.4803 81.5897 52.9603 81.1097C53.4403 80.6297 54.2003 80.6297 54.6803 81.1097L58.2603 84.6897L66.7603 76.1897C67.2403 75.7097 68.0003 75.7097 68.4803 76.1897C68.9603 76.6697 68.9603 77.4297 68.4803 77.9097Z" fill="#EFEFEF"/>
<path d="M0 7.86385V84.2603C0 88.6765 3.4946 92.1986 7.88474 92.1986H39.7203V86.8951H7.88474C6.4034 86.8951 5.21834 85.7572 5.21834 84.2603V7.86385C5.21834 6.43468 6.41014 5.2358 7.88474 5.2358H47.1333V24.1402C47.1333 25.3323 48.1366 26.355 49.3217 26.355H68.0538V42.9904L67.9782 50.2296C69.9549 51.6084 71.2012 53.4854 71.9896 55.313C72.367 56.1342 72.6578 57.0213 72.8821 58.028C73.2711 59.661 73.342 60.9608 73.3685 61.3771L73.3803 61.5134L73.3327 24.1469L49.3217 9.77161e-06C49.0927 9.77161e-06 48.7965 0.0609739 48.5473 0.121934L48.4329 9.77161e-06H7.88474C3.4946 -0.00676356 0 3.5086 0 7.86385Z" fill="#D2D2D2"/>
</svg>
